<?xml version="1.0" standalone="no"?><!DOCTYPE svg PUBLIC "-//W3C//DTD SVG 1.1//EN" "http://www.w3.org/Graphics/SVG/1.1/DTD/svg11.dtd"><svg viewBox="0 0 1024 1024" version="1.1" xmlns="http://www.w3.org/2000/svg" width="200" height="200"><path d="M512 1024C230.006 1024 0 793.994 0 512S230.006 0 512 0s512 230.006 512 512c0 99.25-28.357 193.772-81.92 277.268-6.302 11.027-22.055 14.178-33.083 6.301-11.028-6.301-14.179-22.055-6.302-33.083 48.837-75.618 74.043-162.264 74.043-252.061 0-255.213-207.95-463.163-464.738-463.163S47.262 255.212 47.262 512 255.212 976.738 512 976.738c107.126 0 207.95-34.658 289.87-102.4 9.453-7.876 25.207-6.301 33.084 3.151 7.877 9.453 6.301 25.206-3.15 33.083C742.005 984.615 628.577 1024 512 1024z" fill="#000000"></path><path d="M512 283.57c108.702 0 196.923 88.22 196.923 196.922S620.702 677.415 512 677.415s-196.923-88.221-196.923-196.923S403.298 283.57 512 283.57m0-47.261c-135.483 0-244.185 108.701-244.185 244.184S376.517 724.677 512 724.677s244.185-108.702 244.185-244.185S647.483 236.308 512 236.308z" fill="#000000"></path><path d="M563.988 579.742c-1.576 0-1.576 0 0 0-3.151 0-6.302-1.576-7.877-4.727L499.397 406.45l-55.139 137.059c-1.575 1.575-3.15 4.726-4.726 4.726-3.15 0-4.726 0-6.301-1.576l-77.194-61.44h-44.11c-4.727 0-7.878-3.15-7.878-7.876s3.151-7.877 7.877-7.877h47.262c1.575 0 3.15 0 4.726 1.575l70.892 56.714 58.29-148.086c1.575-3.151 4.726-4.726 7.876-4.726s6.302 1.575 7.877 4.726l56.714 168.566 39.385-105.55c1.575-1.576 3.15-4.727 4.726-4.727 1.575 0 4.726 0 6.301 1.575l45.687 29.933h44.11c4.726 0 7.877 3.15 7.877 7.877s-3.15 7.876-7.877 7.876h-47.261c-1.576 0-3.151 0-4.726-1.575L614.4 456.862 570.29 573.44c-1.576 3.15-3.152 6.302-6.302 6.302z m133.907 250.486l-88.221-129.182c-9.452-14.178-6.302-34.658 7.877-44.11 14.178-9.453 34.658-6.302 44.11 7.876l88.222 129.182c9.452 14.178 6.302 34.658-7.877 44.11-14.178 9.453-34.658 6.302-44.11-7.876z" fill="#000000"></path></svg>